<?xml version="1.0" encoding="UTF-8"?>
<!DOCTYPE svg PUBLIC "-//W3C//DTD SVG 1.1//EN" "http://www.w3.org/Graphics/SVG/1.1/DTD/svg11.dtd">
<svg xmlns="http://www.w3.org/2000/svg" xmlns:xlink="http://www.w3.org/1999/xlink" version="1.1" width="85px" height="85px" viewBox="-0.5 -0.5 85 85"><defs/><g><path d="M 2.34 56.7 C 3.19 54 5.33 51.74 8.23 50.48 C 11.12 49.23 14.5 49.1 17.51 50.14 C 21.89 51.98 25.28 55.21 26.99 59.16 C 34.8 39.93 46.7 22.13 62.06 6.67 C 66.41 3.24 72.5 2 78.17 3.39 C 79.62 3.58 80.85 4.41 81.42 5.58 C 82 6.74 81.85 8.08 81.01 9.13 C 60.14 29.52 44.62 53.58 35.52 79.66 C 30.15 82 23.82 82 18.45 79.66 C 14.4 71.87 8.96 64.68 2.34 58.34 C 2 57.83 2 57.21 2.34 56.7 Z" fill="#000000" stroke="#000000" stroke-width="5" stroke-miterlimit="10" pointer-events="all"/></g></svg>