<?xml version="1.0" encoding="UTF-8"?>
<!DOCTYPE svg PUBLIC "-//W3C//DTD SVG 1.1//EN" "http://www.w3.org/Graphics/SVG/1.1/DTD/svg11.dtd">
<svg xmlns="http://www.w3.org/2000/svg" xmlns:xlink="http://www.w3.org/1999/xlink" version="1.1" width="45px" height="45px" viewBox="-0.5 -0.5 45 45"><defs/><g><rect x="2" y="2" width="40" height="40" rx="6" ry="6" fill="#ffffff" stroke="#006eaf" stroke-width="5" pointer-events="all"/><path d="M 12.09 25.67 C 12.3 25 12.83 24.43 13.56 24.12 C 14.28 23.81 15.12 23.78 15.88 24.03 C 16.97 24.49 17.82 25.3 18.25 26.29 C 20.2 21.48 23.17 17.03 27.01 13.17 C 28.1 12.31 29.63 12 31.04 12.35 C 31.4 12.4 31.71 12.6 31.86 12.89 C 32 13.19 31.96 13.52 31.75 13.78 C 26.54 18.88 22.65 24.9 20.38 31.42 C 19.04 32 17.46 32 16.11 31.42 C 15.1 29.47 13.74 27.67 12.09 26.08 C 12 25.96 12 25.8 12.09 25.67 Z" fill="#006eaf" stroke="#006eaf" stroke-width="5" stroke-miterlimit="10" pointer-events="all"/></g></svg>